<?xml version="1.0" encoding="UTF-8"?>
<!DOCTYPE svg PUBLIC "-//W3C//DTD SVG 1.1//EN" "http://www.w3.org/Graphics/SVG/1.1/DTD/svg11.dtd">
<!-- Creator: CorelDRAW 2017 -->
<svg xmlns="http://www.w3.org/2000/svg" xml:space="preserve" width="33.3928mm" height="8.051mm" version="1.1" style="shape-rendering:geometricPrecision; text-rendering:geometricPrecision; image-rendering:optimizeQuality; fill-rule:evenodd; clip-rule:evenodd"
viewBox="0 0 183.99 44.36"
 xmlns:xlink="http://www.w3.org/1999/xlink">
 <defs>
  <style type="text/css">
   <![CDATA[
    .fil0 {fill:#FEFEFE}
    .fil1 {fill:#FEFEFE;fill-rule:nonzero}
   ]]>
  </style>
 </defs>
 <g id="Capa_x0020_1">
  <metadata id="CorelCorpID_0Corel-Layer"/>
  <g id="_1980647288272">
   <g>
    <g>
     <path class="fil0" d="M22.09 -0c12.2,0 22.09,9.89 22.09,22.09l0 4.39c1,-1.64 2.48,-3.18 4.55,-4.48 4.2,-2.65 8.36,-3.46 11.28,-8.89 2.98,7.3 0.71,14.77 -3.01,18 -4.49,3.9 -10.5,6.27 -11.74,8.34 -0.94,1.57 -1.16,2.71 -0.92,4.89 -0.12,0.02 -0.2,0.02 -0.29,0.02 -0.05,-0 -0.09,-0 -0.14,-0l-0 -0c-0.04,-0 -0.09,-0 -0.13,-0.01l-0.01 -0c-0.04,-0 -0.08,-0.01 -0.13,-0.01l-0.01 -0c-0.04,-0 -0.07,-0.01 -0.11,-0.01l-0.03 -0c-0.03,-0 -0.07,-0.01 -0.1,-0.01l-0.03 -0c-0.04,-0.01 -0.07,-0.01 -0.11,-0.02l-0.03 -0c-0.03,-0.01 -0.07,-0.01 -0.1,-0.02l-0.04 -0.01c-0.03,-0.01 -0.07,-0.01 -0.1,-0.02l-0.03 -0.01c-0.03,-0.01 -0.07,-0.02 -0.1,-0.02l-0.04 -0.01c-0.03,-0.01 -0.06,-0.02 -0.09,-0.02l-0.04 -0.01c-0.03,-0.01 -0.06,-0.02 -0.09,-0.03l-0.04 -0.01c-0.03,-0.01 -0.06,-0.02 -0.09,-0.03l-0.04 -0.01c-0.03,-0.01 -0.06,-0.02 -0.09,-0.03l-0.04 -0.01c-0.03,-0.01 -0.06,-0.02 -0.09,-0.03l-0.04 -0.01c-0.03,-0.01 -0.06,-0.02 -0.08,-0.03l-0.04 -0.02c-0.03,-0.01 -0.06,-0.02 -0.08,-0.04l-0.04 -0.02c-0.03,-0.01 -0.06,-0.03 -0.08,-0.04l-0.04 -0.02c-0.03,-0.01 -0.06,-0.03 -0.08,-0.04l-0.04 -0.02c-0.03,-0.01 -0.05,-0.03 -0.08,-0.04l-0.04 -0.02c-0.03,-0.01 -0.05,-0.03 -0.07,-0.04l-0.04 -0.02c-0.03,-0.01 -0.05,-0.03 -0.08,-0.04l-0.04 -0.02c-0.02,-0.01 -0.05,-0.03 -0.07,-0.04l-0.04 -0.03c-0.02,-0.01 -0.05,-0.03 -0.07,-0.05l-0.04 -0.03c-0.02,-0.02 -0.05,-0.03 -0.07,-0.05l-0.04 -0.03c-0.02,-0.02 -0.04,-0.03 -0.07,-0.05l-0.04 -0.03c-0.02,-0.02 -0.04,-0.03 -0.06,-0.05l-0.04 -0.03c-0.02,-0.02 -0.04,-0.03 -0.06,-0.05l-0.04 -0.03c-0.02,-0.02 -0.04,-0.03 -0.06,-0.05l-0.04 -0.04c-0.02,-0.02 -0.04,-0.03 -0.06,-0.05l-0.04 -0.04c-0.02,-0.02 -0.04,-0.03 -0.06,-0.05l-0.04 -0.04c-0.02,-0.02 -0.04,-0.04 -0.06,-0.05l-0.04 -0.04c-0.02,-0.02 -0.04,-0.04 -0.06,-0.06l-0.03 -0.03c-0.02,-0.02 -0.04,-0.04 -0.06,-0.06l-0.04 -0.04c-0.02,-0.02 -0.03,-0.04 -0.05,-0.06l-0.04 -0.04c-0.02,-0.02 -0.03,-0.04 -0.05,-0.06l-0.04 -0.04c-0.02,-0.02 -0.03,-0.04 -0.05,-0.06 -0.01,-0.02 -0.03,-0.03 -0.04,-0.05 -0.01,-0.02 -0.03,-0.04 -0.04,-0.06l-0.04 -0.05c-0.02,-0.02 -0.03,-0.04 -0.04,-0.06l-0.03 -0.04c-0.02,-0.02 -0.03,-0.04 -0.05,-0.06l-0.03 -0.05c-0.01,-0.02 -0.03,-0.04 -0.04,-0.06l-0.03 -0.05c-0.01,-0.02 -0.03,-0.04 -0.04,-0.06l-0.03 -0.05c-0.01,-0.02 -0.03,-0.04 -0.04,-0.06l-0.03 -0.05c-0.01,-0.02 -0.02,-0.04 -0.03,-0.06 -0.01,-0.02 -0.02,-0.04 -0.03,-0.06l-0.03 -0.06c-0.01,-0.02 -0.02,-0.04 -0.03,-0.06 -0.01,-0.02 -0.02,-0.04 -0.03,-0.06 -0.01,-0.02 -0.02,-0.04 -0.03,-0.06 -0.01,-0.02 -0.02,-0.04 -0.03,-0.06 -0.01,-0.02 -0.02,-0.04 -0.03,-0.06 -0.01,-0.02 -0.02,-0.04 -0.03,-0.06 -0.01,-0.02 -0.02,-0.04 -0.02,-0.06 -0.01,-0.02 -0.02,-0.04 -0.03,-0.07 -0.01,-0.02 -0.02,-0.04 -0.02,-0.06 -0.01,-0.02 -0.02,-0.04 -0.03,-0.06 -0.01,-0.02 -0.01,-0.04 -0.02,-0.06 -0.01,-0.02 -0.02,-0.05 -0.03,-0.07 -0.01,-0.02 -0.01,-0.04 -0.02,-0.06 -0.01,-0.02 -0.02,-0.05 -0.03,-0.07 -0.01,-0.02 -0.01,-0.04 -0.02,-0.06 -0.01,-0.02 -0.01,-0.04 -0.02,-0.07 -0.01,-0.02 -0.01,-0.04 -0.02,-0.07 -0.01,-0.02 -0.01,-0.04 -0.02,-0.07 -0.01,-0.02 -0.01,-0.04 -0.02,-0.06 -0.01,-0.02 -0.01,-0.04 -0.02,-0.07 -0.01,-0.02 -0.01,-0.05 -0.02,-0.07 -0,-0.02 -0.01,-0.04 -0.01,-0.06 -0.01,-0.02 -0.01,-0.05 -0.02,-0.07 -0,-0.02 -0.01,-0.04 -0.01,-0.06 -0,-0.02 -0.01,-0.05 -0.01,-0.07 -0,-0.02 -0.01,-0.04 -0.01,-0.07 -0,-0.02 -0.01,-0.04 -0.01,-0.06 -0,-0.03 -0.01,-0.05 -0.01,-0.08 -0,-0.02 -0.01,-0.04 -0.01,-0.06 -0,-0.02 -0.01,-0.05 -0.01,-0.07 -0,-0.02 -0.01,-0.05 -0.01,-0.07 -0,-0.02 -0,-0.04 -0.01,-0.07 -0,-0.03 -0,-0.05 -0.01,-0.08 -0,-0.02 -0,-0.04 -0.01,-0.06 -0,-0.03 -0,-0.05 -0,-0.08 -0,-0.02 -0,-0.04 -0,-0.06l0 -0c-0,-0.05 -0,-0.09 -0.01,-0.14l0 -0c-0,-0.05 -0,-0.09 -0,-0.14l0 -0.39 0 -1.65 0 -14.66c0,-9.12 -7.4,-16.52 -16.52,-16.52 -9.12,0 -16.52,7.4 -16.52,16.52 0,9.12 7.4,16.52 16.52,16.52 2.7,0 5.26,-0.65 7.51,-1.8l0 6.06c-2.34,0.85 -4.87,1.31 -7.51,1.31 -12.2,0 -22.09,-9.89 -22.09,-22.09 0,-12.2 9.89,-22.09 22.09,-22.09zm21.96 44.36l0 0c-0.05,-0 -0.09,-0 -0.14,-0l0.14 0zm0.13 -9.37l0 2.81c0.02,-0.06 0.03,-0.13 0.05,-0.19 1.31,-4.72 2.83,-6.91 4.8,-9.12 2.5,-2.8 5.95,-5.04 7.47,-7.96 -2.72,3.01 -7.08,5.72 -9.94,9.28 -1.13,1.4 -1.82,3.29 -2.38,5.17z"/>
    </g>
    <path class="fil0" d="M22.09 11.68c5.8,0 10.5,4.7 10.5,10.5 0,5.8 -4.7,10.5 -10.5,10.5 -5.8,0 -10.5,-4.7 -10.5,-10.5 0,-0.81 0.09,-1.6 0.27,-2.36 0.64,1.63 2.23,2.79 4.09,2.79 2.42,0 4.39,-1.96 4.39,-4.39 0,-2.42 -1.97,-4.39 -4.39,-4.39 -0.08,0 -0.15,0 -0.22,0.01 1.77,-1.35 3.98,-2.16 6.37,-2.16z"/>
   </g>
   <g id="_1980428599600">
    <g>
     <path class="fil1" d="M76.25 19.39c0,1.05 0.04,1.95 0.12,2.69 0.08,0.75 0.18,1.35 0.3,1.8l-1.79 0c-0.25,-0.14 -0.44,-0.33 -0.58,-0.57 -0.14,-0.24 -0.26,-0.5 -0.37,-0.78l-0.03 -0.47 -0.29 0.47c-0.67,0.67 -1.28,1.1 -1.85,1.3 -0.57,0.2 -1.17,0.3 -1.8,0.3 -0.68,0 -1.3,-0.1 -1.84,-0.29 -0.54,-0.19 -1.01,-0.46 -1.39,-0.79 -0.39,-0.33 -0.68,-0.73 -0.88,-1.18 -0.2,-0.46 -0.3,-0.95 -0.3,-1.47 0,-0.67 0.13,-1.24 0.38,-1.74 0.25,-0.49 0.67,-0.91 1.24,-1.26 0.57,-0.35 1.32,-0.64 2.25,-0.88 0.93,-0.24 2.07,-0.43 3.42,-0.59 -0.04,0.16 -0.08,0.34 -0.14,0.55 -0.06,0.21 -0.17,0.42 -0.32,0.62 -0.15,0.2 -0.34,0.38 -0.56,0.54 -0.23,0.16 -0.52,0.26 -0.87,0.32 -0.58,0.09 -1.05,0.21 -1.41,0.37 -0.36,0.16 -0.64,0.34 -0.85,0.54 -0.21,0.2 -0.35,0.42 -0.42,0.66 -0.07,0.24 -0.11,0.48 -0.11,0.72 0,0.54 0.19,1.01 0.58,1.41 0.39,0.39 0.91,0.59 1.58,0.59 0.6,0 1.2,-0.15 1.8,-0.45 0.6,-0.3 1.16,-0.78 1.67,-1.45l0 -4.92c0,-1.03 -0.25,-1.88 -0.76,-2.54 -0.51,-0.66 -1.36,-0.99 -2.55,-0.99 -0.47,0 -0.94,0.05 -1.41,0.14 -0.46,0.1 -1.01,0.26 -1.64,0.49l-0.6 -1.63c0.86,-0.37 1.62,-0.61 2.27,-0.72 0.66,-0.11 1.27,-0.17 1.85,-0.17 1.7,0 3.01,0.49 3.93,1.46 0.92,0.97 1.38,2.35 1.38,4.14l0 3.76zm3.37 -2.23c0,-1.07 0.17,-2.04 0.51,-2.92 0.34,-0.88 0.82,-1.63 1.45,-2.25 0.62,-0.62 1.36,-1.1 2.21,-1.45 0.85,-0.34 1.78,-0.51 2.8,-0.51 0.74,0 1.47,0.07 2.2,0.2 0.73,0.13 1.55,0.35 2.46,0.64l0 13.01c0,0.98 -0.14,1.88 -0.43,2.68 -0.29,0.81 -0.71,1.5 -1.25,2.08 -0.54,0.58 -1.2,1.03 -1.96,1.34 -0.76,0.32 -1.63,0.47 -2.59,0.47 -0.68,0 -1.43,-0.07 -2.23,-0.21 -0.81,-0.14 -1.65,-0.44 -2.52,-0.89l0.68 -1.79c0.75,0.37 1.45,0.63 2.08,0.78 0.63,0.15 1.23,0.22 1.79,0.22 0.54,0 1.06,-0.09 1.55,-0.26 0.49,-0.17 0.92,-0.44 1.29,-0.8 0.37,-0.36 0.66,-0.81 0.88,-1.37 0.22,-0.55 0.33,-1.21 0.33,-1.96l0 -11.96c-0.4,-0.11 -0.78,-0.18 -1.13,-0.22 -0.35,-0.04 -0.72,-0.07 -1.13,-0.07 -1.31,0 -2.37,0.45 -3.17,1.34 -0.8,0.89 -1.21,2.19 -1.21,3.89 0,0.74 0.07,1.42 0.22,2.06 0.15,0.64 0.38,1.18 0.68,1.63 0.31,0.45 0.68,0.79 1.13,1.01 0.45,0.23 0.98,0.31 1.59,0.24 0.39,-0.04 0.76,0.02 1.12,0.16 0.36,0.14 0.7,0.41 1.01,0.81 -0.44,0.3 -0.89,0.53 -1.34,0.68 -0.46,0.16 -0.88,0.25 -1.29,0.29 -0.79,0.07 -1.53,-0.05 -2.22,-0.35 -0.69,-0.31 -1.3,-0.77 -1.82,-1.38 -0.52,-0.61 -0.93,-1.36 -1.24,-2.23 -0.3,-0.88 -0.45,-1.85 -0.45,-2.92zm17.27 -6.86c0.28,0.3 0.48,0.62 0.59,0.96 0.11,0.34 0.22,0.72 0.3,1.14l0 0.47 0.21 -0.47c0.35,-0.67 0.84,-1.21 1.47,-1.64 0.63,-0.43 1.31,-0.64 2.02,-0.64 0.35,0 0.78,0.07 1.29,0.21l-0.32 2.05c-0.28,-0.07 -0.52,-0.11 -0.72,-0.13 -0.2,-0.02 -0.38,-0.03 -0.54,-0.03 -0.4,0 -0.81,0.08 -1.21,0.25 -0.4,0.17 -0.76,0.42 -1.08,0.78 -0.32,0.35 -0.57,0.81 -0.78,1.37 -0.2,0.56 -0.3,1.24 -0.3,2.02l0 7.26 -2.34 0 0 -8.99c0,-0.81 -0.03,-1.62 -0.1,-2.44 -0.07,-0.82 -0.18,-1.54 -0.32,-2.16l1.81 0zm7.1 6.78c0,-1.21 0.18,-2.26 0.55,-3.14 0.37,-0.89 0.85,-1.62 1.45,-2.2 0.6,-0.58 1.28,-1.01 2.04,-1.29 0.76,-0.28 1.53,-0.42 2.3,-0.42 1,0 1.89,0.18 2.68,0.55 0.79,0.37 1.46,0.87 2,1.5 0.54,0.63 0.95,1.38 1.24,2.23 0.28,0.86 0.42,1.78 0.42,2.76 0,1.14 -0.17,2.15 -0.51,3.04 -0.34,0.89 -0.8,1.63 -1.38,2.22 -0.58,0.6 -1.25,1.05 -2.02,1.35 -0.77,0.31 -1.58,0.46 -2.42,0.46 -0.88,0 -1.7,-0.15 -2.47,-0.46 -0.77,-0.31 -1.44,-0.76 -2.01,-1.35 -0.57,-0.6 -1.02,-1.34 -1.35,-2.22 -0.33,-0.88 -0.5,-1.9 -0.5,-3.04zm2.6 0c0,0.77 0.08,1.47 0.25,2.1 0.17,0.63 0.41,1.17 0.72,1.63 0.32,0.46 0.7,0.81 1.17,1.06 0.46,0.25 0.99,0.38 1.59,0.38 0.63,0 1.18,-0.14 1.66,-0.41 0.47,-0.27 0.86,-0.64 1.17,-1.12 0.31,-0.47 0.53,-1.03 0.68,-1.66 0.15,-0.63 0.22,-1.3 0.22,-2 0,-0.88 -0.1,-1.64 -0.3,-2.29 -0.2,-0.65 -0.47,-1.18 -0.81,-1.6 -0.34,-0.42 -0.74,-0.74 -1.2,-0.95 -0.46,-0.21 -0.93,-0.32 -1.42,-0.32 -0.51,0 -0.99,0.11 -1.43,0.32 -0.45,0.21 -0.84,0.53 -1.18,0.95 -0.34,0.42 -0.61,0.96 -0.81,1.6 -0.2,0.65 -0.3,1.41 -0.3,2.29z"/>
     <path class="fil1" d="M124.73 23.89l-6.7 -19.11 4 0 4.5 14.51 0.18 1 0.18 -0.97 4.5 -14.54 3.86 0 -6.65 19.11 -3.87 0zm12.46 0l0 -13.59 3.68 0 0 13.59 -3.68 0zm-0.32 -17.54c0,-0.61 0.21,-1.14 0.62,-1.56 0.41,-0.43 0.92,-0.64 1.54,-0.64 0.61,0 1.13,0.21 1.54,0.64 0.41,0.43 0.62,0.95 0.62,1.56 0,0.61 -0.21,1.13 -0.62,1.54 -0.41,0.41 -0.93,0.62 -1.54,0.62 -0.61,0 -1.13,-0.21 -1.54,-0.62 -0.41,-0.41 -0.62,-0.93 -0.62,-1.54zm16.04 9.2c0.05,-0.4 0.04,-0.79 -0.05,-1.16 -0.09,-0.37 -0.23,-0.69 -0.43,-0.97 -0.2,-0.28 -0.46,-0.5 -0.76,-0.67 -0.31,-0.17 -0.66,-0.25 -1.07,-0.25 -0.37,0 -0.73,0.08 -1.09,0.24 -0.36,0.16 -0.69,0.41 -0.99,0.75 -0.3,0.34 -0.54,0.78 -0.72,1.32 -0.18,0.53 -0.28,1.18 -0.28,1.93 0,1.53 0.34,2.7 1.03,3.54 0.68,0.83 1.58,1.25 2.68,1.25 0.61,0 1.21,-0.07 1.8,-0.22 0.59,-0.15 1.27,-0.4 2.04,-0.75l0.92 2.45c-0.95,0.46 -1.84,0.78 -2.67,0.96 -0.83,0.18 -1.66,0.28 -2.48,0.28 -1.21,0 -2.25,-0.22 -3.12,-0.66 -0.87,-0.44 -1.59,-1 -2.16,-1.7 -0.57,-0.69 -0.99,-1.48 -1.26,-2.35 -0.27,-0.88 -0.41,-1.76 -0.41,-2.66 0,-1.09 0.18,-2.06 0.54,-2.92 0.36,-0.86 0.85,-1.58 1.47,-2.17 0.62,-0.59 1.35,-1.04 2.2,-1.35 0.84,-0.32 1.74,-0.47 2.68,-0.47 0.96,0 1.85,0.19 2.66,0.58 0.81,0.39 1.46,0.92 1.95,1.6 0.49,0.68 0.79,1.5 0.91,2.46 0.11,0.96 -0.02,1.99 -0.41,3.12l-7.36 0c0.19,-0.61 0.47,-1.13 0.83,-1.54 0.36,-0.41 0.77,-0.62 1.22,-0.62l2.34 0zm18.67 8.33l-4.81 -13.59 3.89 0 2.73 9.62 0.18 0.79 0.18 -0.79 2.71 -9.62 3.81 0 -4.79 13.59 -3.92 0zm-4.89 0l-3.84 0 -4.78 -13.59 3.86 0 2.73 9.62 0.18 0.79 0.18 -0.79 1.95 -5.15c0.21,0.39 0.41,0.85 0.59,1.39 0.18,0.54 0.32,1.13 0.42,1.75 0.1,0.62 0.12,1.25 0.08,1.89 -0.04,0.64 -0.18,1.24 -0.41,1.8l-0.97 2.29z"/>
    </g>
    <path class="fil1" d="M98.89 39.55c-0.74,0 -1.43,-0.13 -2.07,-0.38 -0.64,-0.25 -1.19,-0.61 -1.67,-1.08 -0.47,-0.47 -0.84,-1.04 -1.11,-1.7 -0.27,-0.67 -0.4,-1.42 -0.4,-2.26 0,-0.81 0.13,-1.55 0.4,-2.22 0.27,-0.67 0.63,-1.25 1.11,-1.73 0.47,-0.48 1.03,-0.85 1.67,-1.12 0.64,-0.27 1.33,-0.4 2.07,-0.4 0.41,0 0.82,0.04 1.25,0.12 0.43,0.08 0.87,0.2 1.31,0.36l-0.38 0.93c-0.42,-0.13 -0.81,-0.23 -1.16,-0.29 -0.35,-0.06 -0.69,-0.09 -1.03,-0.09 -0.5,0 -0.98,0.09 -1.43,0.28 -0.45,0.18 -0.85,0.46 -1.2,0.83 -0.35,0.37 -0.62,0.83 -0.83,1.38 -0.2,0.55 -0.3,1.2 -0.3,1.93 0,0.66 0.1,1.25 0.3,1.79 0.2,0.54 0.48,1 0.83,1.38 0.35,0.39 0.75,0.68 1.2,0.89 0.45,0.21 0.93,0.31 1.43,0.31 0.34,0 0.69,-0.04 1.04,-0.13 0.36,-0.09 0.74,-0.23 1.14,-0.43l0.38 0.94c-0.45,0.24 -0.89,0.41 -1.32,0.51 -0.42,0.1 -0.84,0.15 -1.25,0.15zm3.74 -3.93c0,-0.67 0.1,-1.24 0.3,-1.73 0.2,-0.49 0.47,-0.89 0.8,-1.21 0.33,-0.32 0.7,-0.56 1.12,-0.71 0.42,-0.15 0.84,-0.23 1.27,-0.23 0.55,0 1.04,0.1 1.48,0.3 0.43,0.2 0.8,0.48 1.1,0.83 0.3,0.35 0.53,0.76 0.68,1.23 0.15,0.47 0.23,0.98 0.23,1.52 0,0.63 -0.09,1.19 -0.28,1.67 -0.19,0.49 -0.44,0.9 -0.76,1.22 -0.32,0.33 -0.69,0.58 -1.12,0.75 -0.43,0.17 -0.87,0.25 -1.33,0.25 -0.48,0 -0.94,-0.08 -1.36,-0.25 -0.42,-0.17 -0.79,-0.42 -1.11,-0.75 -0.31,-0.33 -0.56,-0.74 -0.75,-1.22 -0.18,-0.49 -0.28,-1.05 -0.28,-1.67zm1.43 0c0,0.42 0.05,0.81 0.14,1.16 0.09,0.35 0.22,0.65 0.4,0.9 0.17,0.25 0.39,0.45 0.65,0.59 0.26,0.14 0.55,0.21 0.88,0.21 0.35,0 0.65,-0.07 0.91,-0.22 0.26,-0.15 0.48,-0.35 0.65,-0.62 0.17,-0.26 0.29,-0.57 0.38,-0.91 0.08,-0.35 0.12,-0.72 0.12,-1.1 0,-0.48 -0.06,-0.9 -0.17,-1.26 -0.11,-0.36 -0.26,-0.65 -0.45,-0.88 -0.19,-0.23 -0.41,-0.41 -0.66,-0.52 -0.25,-0.12 -0.51,-0.17 -0.78,-0.17 -0.28,0 -0.54,0.06 -0.79,0.17 -0.25,0.12 -0.46,0.29 -0.65,0.52 -0.19,0.23 -0.34,0.53 -0.45,0.88 -0.11,0.36 -0.17,0.78 -0.17,1.26zm8.74 3.75l-1.32 0 0 -10.98 1.32 0 0 10.98zm1.71 -3.75c0,-0.67 0.1,-1.24 0.3,-1.73 0.2,-0.49 0.47,-0.89 0.8,-1.21 0.33,-0.32 0.7,-0.56 1.12,-0.71 0.42,-0.15 0.84,-0.23 1.27,-0.23 0.55,0 1.04,0.1 1.48,0.3 0.43,0.2 0.8,0.48 1.1,0.83 0.3,0.35 0.53,0.76 0.68,1.23 0.15,0.47 0.23,0.98 0.23,1.52 0,0.63 -0.09,1.19 -0.28,1.67 -0.19,0.49 -0.44,0.9 -0.76,1.22 -0.32,0.33 -0.69,0.58 -1.12,0.75 -0.43,0.17 -0.87,0.25 -1.33,0.25 -0.48,0 -0.94,-0.08 -1.36,-0.25 -0.42,-0.17 -0.79,-0.42 -1.11,-0.75 -0.31,-0.33 -0.56,-0.74 -0.75,-1.22 -0.18,-0.49 -0.27,-1.05 -0.27,-1.67zm1.43 0c0,0.42 0.05,0.81 0.14,1.16 0.09,0.35 0.22,0.65 0.4,0.9 0.17,0.25 0.39,0.45 0.65,0.59 0.26,0.14 0.55,0.21 0.88,0.21 0.35,0 0.65,-0.07 0.91,-0.22 0.26,-0.15 0.48,-0.35 0.65,-0.62 0.17,-0.26 0.29,-0.57 0.38,-0.91 0.08,-0.35 0.12,-0.72 0.12,-1.1 0,-0.48 -0.06,-0.9 -0.17,-1.26 -0.11,-0.36 -0.26,-0.65 -0.45,-0.88 -0.19,-0.23 -0.41,-0.41 -0.66,-0.52 -0.25,-0.12 -0.51,-0.17 -0.78,-0.17 -0.28,0 -0.54,0.06 -0.79,0.17 -0.25,0.12 -0.46,0.29 -0.65,0.52 -0.19,0.23 -0.34,0.53 -0.45,0.88 -0.11,0.36 -0.17,0.78 -0.17,1.26zm8.24 -3.74c0.23,0.26 0.38,0.52 0.46,0.78 0.07,0.26 0.11,0.53 0.11,0.82l0 5.9 -1.39 0 0 -5.67c0,-0.27 -0.02,-0.56 -0.05,-0.86 -0.03,-0.3 -0.09,-0.63 -0.17,-0.96l1.04 0zm3.84 2.04c0,-0.34 -0.07,-0.61 -0.21,-0.83 -0.14,-0.21 -0.35,-0.32 -0.63,-0.32 -0.12,0 -0.22,0.01 -0.3,0.03 -0.09,0.02 -0.19,0.04 -0.32,0.07 -0.28,0.07 -0.54,0.07 -0.77,0.01 -0.23,-0.06 -0.45,-0.19 -0.65,-0.41 0.51,-0.3 0.94,-0.5 1.29,-0.6 0.35,-0.1 0.65,-0.15 0.91,-0.15 0.28,0 0.55,0.04 0.8,0.11 0.25,0.07 0.47,0.2 0.66,0.38 0.19,0.18 0.34,0.43 0.45,0.72 0.11,0.3 0.17,0.67 0.17,1.12l0 5.3 -1.39 0 0 -5.45zm4.65 0c0,-0.34 -0.07,-0.61 -0.22,-0.83 -0.14,-0.21 -0.37,-0.32 -0.68,-0.32 -0.12,0 -0.22,0.01 -0.32,0.04 -0.1,0.02 -0.21,0.05 -0.35,0.08 -0.28,0.07 -0.54,0.07 -0.78,0.01 -0.24,-0.06 -0.46,-0.19 -0.67,-0.41 0.52,-0.31 0.96,-0.51 1.33,-0.62 0.36,-0.1 0.67,-0.15 0.94,-0.15 0.29,0 0.56,0.04 0.82,0.11 0.26,0.07 0.48,0.2 0.68,0.38 0.2,0.18 0.35,0.43 0.47,0.72 0.12,0.3 0.17,0.67 0.17,1.12l0 5.3 -1.39 0 0 -5.45zm5.56 -1.74c0.25,-0.13 0.52,-0.22 0.8,-0.29 0.28,-0.07 0.54,-0.1 0.76,-0.1 0.4,0 0.78,0.08 1.14,0.24 0.37,0.16 0.7,0.4 0.98,0.72 0.29,0.32 0.52,0.71 0.69,1.19 0.17,0.47 0.26,1.02 0.26,1.65 0,0.58 -0.09,1.11 -0.27,1.59 -0.18,0.48 -0.43,0.89 -0.75,1.24 -0.32,0.35 -0.71,0.62 -1.15,0.81 -0.45,0.19 -0.95,0.29 -1.49,0.29 -1.05,0 -1.99,-0.24 -2.82,-0.72l0 -10.4 1.35 0 0 9.85c0.23,0.09 0.48,0.15 0.74,0.18 0.26,0.03 0.5,0.05 0.72,0.05 0.35,0 0.66,-0.07 0.93,-0.21 0.28,-0.14 0.51,-0.34 0.7,-0.59 0.19,-0.25 0.34,-0.56 0.44,-0.91 0.1,-0.36 0.15,-0.75 0.15,-1.17 0,-0.97 -0.19,-1.68 -0.57,-2.13 -0.38,-0.45 -0.89,-0.66 -1.51,-0.62 -0.43,0.03 -0.81,-0.19 -1.12,-0.65zm6.55 7.19l0 -7.49 1.39 0 0 7.49 -1.39 0zm-0.17 -9.66c0,-0.25 0.08,-0.46 0.25,-0.62 0.16,-0.17 0.37,-0.25 0.62,-0.25 0.25,0 0.46,0.08 0.62,0.25 0.16,0.17 0.25,0.38 0.25,0.62 0,0.25 -0.08,0.45 -0.25,0.62 -0.16,0.16 -0.37,0.24 -0.62,0.24 -0.25,0 -0.46,-0.08 -0.62,-0.24 -0.16,-0.16 -0.25,-0.37 -0.25,-0.62zm9.29 7.18c0,0.58 0.02,1.07 0.07,1.48 0.04,0.41 0.1,0.74 0.17,0.99l-0.98 0c-0.14,-0.08 -0.24,-0.18 -0.32,-0.31 -0.08,-0.13 -0.14,-0.27 -0.2,-0.43l-0.01 -0.26 -0.16 0.26c-0.37,0.37 -0.71,0.61 -1.02,0.72 -0.31,0.11 -0.64,0.17 -0.99,0.17 -0.38,0 -0.71,-0.05 -1.01,-0.16 -0.3,-0.11 -0.56,-0.25 -0.77,-0.43 -0.21,-0.18 -0.37,-0.4 -0.49,-0.65 -0.11,-0.25 -0.17,-0.52 -0.17,-0.81 0,-0.37 0.07,-0.69 0.21,-0.96 0.14,-0.27 0.37,-0.5 0.68,-0.69 0.31,-0.19 0.73,-0.36 1.24,-0.49 0.51,-0.13 1.14,-0.24 1.88,-0.33 -0.02,0.09 -0.05,0.19 -0.08,0.3 -0.03,0.12 -0.09,0.23 -0.17,0.34 -0.08,0.11 -0.19,0.21 -0.31,0.3 -0.13,0.09 -0.28,0.14 -0.48,0.17 -0.32,0.05 -0.58,0.12 -0.78,0.2 -0.2,0.09 -0.35,0.19 -0.47,0.3 -0.12,0.11 -0.19,0.23 -0.23,0.36 -0.04,0.13 -0.06,0.26 -0.06,0.4 0,0.3 0.11,0.56 0.32,0.78 0.21,0.22 0.5,0.33 0.87,0.33 0.33,0 0.66,-0.08 0.99,-0.25 0.33,-0.16 0.64,-0.43 0.92,-0.8l0 -2.71c0,-0.57 -0.14,-1.04 -0.42,-1.4 -0.28,-0.36 -0.75,-0.54 -1.41,-0.54 -0.26,0 -0.52,0.03 -0.78,0.08 -0.26,0.05 -0.56,0.14 -0.91,0.27l-0.33 -0.9c0.47,-0.2 0.89,-0.34 1.25,-0.4 0.36,-0.06 0.7,-0.09 1.02,-0.09 0.94,0 1.66,0.27 2.17,0.8 0.51,0.54 0.76,1.3 0.76,2.28l0 2.07zm8.87 -7.19c-0.27,0 -0.51,0.04 -0.72,0.12 -0.21,0.08 -0.38,0.2 -0.53,0.34 -0.14,0.14 -0.25,0.31 -0.33,0.5 -0.07,0.19 -0.11,0.39 -0.11,0.6 0,0.38 0.12,0.7 0.36,0.96 0.24,0.27 0.55,0.51 0.91,0.73 0.37,0.22 0.76,0.44 1.18,0.66 0.42,0.22 0.81,0.47 1.18,0.75 0.37,0.28 0.67,0.61 0.91,0.99 0.24,0.38 0.36,0.84 0.36,1.39 0,0.36 -0.07,0.71 -0.22,1.04 -0.15,0.34 -0.37,0.64 -0.67,0.9 -0.29,0.26 -0.65,0.47 -1.08,0.62 -0.42,0.15 -0.91,0.23 -1.46,0.23 -0.2,0 -0.43,-0.01 -0.68,-0.04 -0.25,-0.02 -0.51,-0.06 -0.77,-0.11 -0.26,-0.05 -0.53,-0.12 -0.8,-0.2 -0.27,-0.09 -0.53,-0.19 -0.77,-0.3l0.38 -0.94c0.43,0.19 0.87,0.33 1.31,0.42 0.44,0.09 0.83,0.13 1.17,0.13 0.69,0 1.22,-0.17 1.59,-0.51 0.38,-0.34 0.57,-0.76 0.57,-1.27 0,-0.42 -0.12,-0.76 -0.36,-1.03 -0.24,-0.28 -0.54,-0.52 -0.9,-0.75 -0.36,-0.22 -0.75,-0.44 -1.17,-0.64 -0.43,-0.21 -0.82,-0.44 -1.17,-0.71 -0.36,-0.27 -0.66,-0.58 -0.9,-0.95 -0.24,-0.37 -0.36,-0.82 -0.36,-1.36 0,-0.35 0.07,-0.69 0.21,-1.01 0.14,-0.32 0.34,-0.6 0.6,-0.84 0.26,-0.24 0.57,-0.43 0.93,-0.57 0.36,-0.13 0.75,-0.2 1.19,-0.2 0.42,0 0.83,0.03 1.25,0.1 0.42,0.07 0.88,0.18 1.37,0.33l-0.39 0.93c-0.42,-0.13 -0.8,-0.21 -1.15,-0.25 -0.35,-0.04 -0.66,-0.07 -0.93,-0.07zm9.61 -0.87l3.8 10.53 -1.48 0 -2.94 -8.49 -0.1 -0.42 -0.1 0.42 -1.62 4.65 -0.16 0.3 0.17 -0.03 1.96 0c0.35,0 0.61,0.1 0.8,0.31 0.18,0.21 0.33,0.45 0.43,0.73l-3.65 0 -0.87 2.52 -1.38 0 3.8 -10.53 1.35 0zm8.38 0.87c-0.27,0 -0.51,0.04 -0.72,0.12 -0.21,0.08 -0.38,0.2 -0.53,0.34 -0.14,0.14 -0.25,0.31 -0.33,0.5 -0.07,0.19 -0.11,0.39 -0.11,0.6 0,0.38 0.12,0.7 0.36,0.96 0.24,0.27 0.55,0.51 0.91,0.73 0.37,0.22 0.76,0.44 1.18,0.66 0.42,0.22 0.81,0.47 1.18,0.75 0.37,0.28 0.67,0.61 0.91,0.99 0.24,0.38 0.36,0.84 0.36,1.39 0,0.36 -0.08,0.71 -0.22,1.04 -0.15,0.34 -0.37,0.64 -0.67,0.9 -0.29,0.26 -0.65,0.47 -1.08,0.62 -0.43,0.15 -0.91,0.23 -1.46,0.23 -0.2,0 -0.43,-0.01 -0.68,-0.04 -0.25,-0.02 -0.51,-0.06 -0.77,-0.11 -0.26,-0.05 -0.53,-0.12 -0.8,-0.2 -0.27,-0.09 -0.53,-0.19 -0.77,-0.3l0.38 -0.94c0.43,0.19 0.87,0.33 1.31,0.42 0.44,0.09 0.83,0.13 1.17,0.13 0.69,0 1.22,-0.17 1.59,-0.51 0.38,-0.34 0.56,-0.76 0.56,-1.27 0,-0.42 -0.12,-0.76 -0.36,-1.03 -0.24,-0.28 -0.54,-0.52 -0.9,-0.75 -0.36,-0.22 -0.75,-0.44 -1.17,-0.64 -0.42,-0.21 -0.82,-0.44 -1.17,-0.71 -0.36,-0.27 -0.66,-0.58 -0.9,-0.95 -0.24,-0.37 -0.36,-0.82 -0.36,-1.36 0,-0.35 0.07,-0.69 0.21,-1.01 0.14,-0.32 0.34,-0.6 0.6,-0.84 0.26,-0.24 0.57,-0.43 0.93,-0.57 0.36,-0.13 0.75,-0.2 1.19,-0.2 0.42,0 0.83,0.03 1.25,0.1 0.42,0.07 0.88,0.18 1.37,0.33l-0.39 0.93c-0.42,-0.13 -0.8,-0.21 -1.15,-0.25 -0.35,-0.04 -0.66,-0.07 -0.93,-0.07z"/>
   </g>
  </g>
 </g>
</svg>
